<?xml version="1.0" encoding="UTF-8"?>
<svg xmlns="http://www.w3.org/2000/svg" viewBox="0 0 127 63.5">
  <g transform="translate(-30.511761,-24.280848)">
    <g transform="translate(6.5277492)">
      <g transform="matrix(1.3007991,0,0,1.3007991,-24.729646,-29.193993)">
        <g transform="matrix(0.58238742,0,0,0.58238742,15.7223,15.710075)">
          <path fill="#f1ece0" d="m 51.670794,74.225678 c -6.708605,0 -12.20433,5.193709 -12.685721,11.779452 -0.0379,0.518461 0.387803,0.936692 0.906271,0.97459 4.963176,0.362794 9.136077,3.573352 10.890777,8.004789 0.484366,1.22325 0.686409,1.8348 0.888673,1.834798 0.202265,2e-6 0.404308,-0.611548 0.888674,-1.834798 1.7547,-4.431437 5.927602,-7.641995 10.890777,-8.004789 0.518469,-0.0379 0.944171,-0.456129 0.906272,-0.97459 C 63.875124,79.419386 58.3794,74.225678 51.670794,74.225678 Z"/>
          <path fill="#f1ece0" d="m 66.934653,89.489536 c -6.708606,0 -12.20433,5.193707 -12.685722,11.779444 -0.0379,0.51846 0.387803,0.93669 0.906271,0.97459 4.963176,0.3628 9.136077,3.57335 10.890778,8.00479 0.484365,1.22325 0.686409,1.8348 0.888673,1.8348 0.202264,0 0.404308,-0.61155 0.888673,-1.8348 1.7547,-4.43144 5.927602,-7.64199 10.890778,-8.00479 0.518468,-0.0379 0.94417,-0.45613 0.906271,-0.97459 C 79.138983,94.683242 73.643259,89.489536 66.934653,89.489536 Z"/>
          <path fill="#f1ece0" d="m 66.934653,58.96182 c -6.708606,0 -12.20433,5.193707 -12.685722,11.779445 -0.0379,0.518461 0.387803,0.936691 0.906271,0.97459 4.963176,0.362794 9.136077,3.573351 10.890778,8.004789 0.484365,1.22325 0.686409,1.834799 0.888673,1.834797 0.202264,2e-6 0.404308,-0.611547 0.888673,-1.834797 1.7547,-4.431438 5.927602,-7.641995 10.890778,-8.004789 0.518468,-0.0379 0.94417,-0.456129 0.906271,-0.97459 C 79.138983,64.155526 73.643259,58.96182 66.934653,58.96182 Z"/>
        </g>
        <text x="65.583397" y="70.617149" font-family="Sentient" font-size="20.3994" fill="#b8923a">Kujaku</text>
        <text x="97.768898" y="75.870705" font-family="Sentient" font-size="4.54443" letter-spacing="0.177271" fill="#f1ece0">INVESTMENTS</text>
      </g>
    </g>
  </g>
</svg>
